<?xml version="1.0" encoding="UTF-8"?>
<svg width="1681px" height="425px" viewBox="0 0 1681 425" version="1.1" xmlns="http://www.w3.org/2000/svg" xmlns:xlink="http://www.w3.org/1999/xlink">
    <!-- Generator: Sketch 47.1 (45422) - http://www.bohemiancoding.com/sketch -->
    <title>Artboard</title>
    <desc>Created with Sketch.</desc>
    <defs></defs>
    <g id="Page-1" stroke="none" stroke-width="1" fill="none" fill-rule="evenodd">
        <g id="Artboard">
            <g id="Header-Background" transform="translate(-20.000000, 12.000000)">
                <path d="M16,200.62726 C293.885183,54.7938576 228.303059,11.6422157 324.892197,11.6422157 C421.481335,11.6422157 524.858216,129.198264 623.052265,223.21071 C627.491537,227.473295 762.311422,182.270756 880.728821,0.967349058 C1144.01495,116.486951 1149.9206,139.75773 1263.81765,236.589547 C1339.74902,301.144091 1467.48537,360.064868 1647.02668,413.351876 L1456,413.351876 L16,413.351876 C17.1277473,272.500275 17.1277473,201.59207 16,200.62726 Z" id="Path-2" fill="#ED6A12"></path>
                <path d="M411.816577,413.224735 C508.405715,413.224735 496.440985,319.556903 623.052265,223.21071 C627.491537,227.473295 762.311422,182.270756 880.728821,0.967349058 C919.011102,179.554187 864.66403,224.846467 797.589058,413.224735 C476.014645,413.224735 347.423818,413.224735 411.816577,413.224735 Z" id="Path-2-Copy-3" fill-opacity="0.49000001" fill="#F28A05" style="mix-blend-mode: overlay;"></path>
                <path d="M77.7240989,158.990487 C77.5543231,157.971832 77.8938747,156.953177 77.5543231,155.934523 C77.2996594,155.085644 76.7054442,155.000756 76.2810047,154.321653 C75.1774621,152.539007 74.1588074,150.162146 73.9890316,147.955061 C73.9041437,146.002639 73.1401527,144.135106 73.0552648,142.182684 C72.9703769,141.248917 73.1401527,140.230263 73.0552648,139.296496 C73.0552648,138.872056 72.9703769,138.447617 72.885489,137.938289 C72.885489,137.853402 72.8006011,137.344074 72.7157133,137.089411 L72.9703769,136.495195 C72.885489,136.325419 75.0925742,136.325419 75.7716774,136.325419 C76.87522,136.325419 77.9787626,136.410307 79.0823052,136.410307 C81.3742782,136.495195 83.4964755,136.495195 85.7035607,136.155644 C90.7119464,135.391653 93.0039194,133.354343 94.107462,132.505464 C98.6914082,129.194837 100.728718,123.846899 100.728718,123.846899 C101.492709,122.149142 101.492709,119.178065 103.105579,117.819859 C104.973112,116.206989 108.198852,116.376765 110.405937,115.35811 C111.679256,114.763895 112.613022,114.509231 113.886341,114.763895 C114.820108,114.933671 116.602753,116.122101 117.027193,114.509231 C116.687641,114.339455 116.602753,113.915016 116.432978,113.74524 C118.215623,113.575464 116.432978,109.415958 115.753874,108.567079 C114.650332,107.29376 112.782798,106.699545 110.830377,106.190218 C108.538404,105.596003 106.416206,104.832012 104.209121,105.256451 C100.389166,106.020442 100.64383,103.813357 98.4367445,103.813357 C95.720332,103.813357 90.96661,103.983133 90.1177311,106.529769 C89.6932916,107.7182 89.3537401,107.803088 88.6746369,108.736855 C88.0804217,109.500846 88.7595248,110.264837 88.5048612,111.198603 C88.1653096,112.13237 87.7408701,115.442998 87.3164307,116.631429 C86.5524396,118.58385 85.6186728,121.045599 83.920915,121.045599 C81.544054,121.300263 79.6765204,121.38515 77.7240989,120.706047 C76.5356684,120.281608 74.5832469,119.602505 73.6494801,119.262953 C69.2353097,117.39542 68.4713187,115.35811 68.4713187,115.35811 C67.9619913,114.594119 66.7735608,113.320801 66.2642335,111.623043 C65.7549061,109.840397 64.9060272,108.312415 64.5664756,107.29376 C64.2269241,106.275106 63.2931572,104.747124 62.6140541,103.049366 C61.7651752,100.842281 60.4918568,99.2294107 59.55809,98.4654197 C58.1998837,97.2769892 56.9265654,95.3245677 54.1252649,95.9187829 C53.6159376,96.0036708 51.8332918,96.0885587 50.3901977,97.2769892 C49.4564309,98.0409802 49.1168793,99.738738 48.2680004,101.096944 C47.758673,101.860935 46.9097941,104.152908 46.0609152,106.10533 C45.4666999,107.463536 45.2120363,108.397303 44.617821,108.90663 C44.1084937,109.246182 43.5142784,109.755509 42.8351753,109.500846 C42.4107358,109.33107 41.9014085,109.076406 41.476969,108.651967 C40.7978659,108.142639 39.3547717,105.596003 38.4210049,103.813357 C37.6570139,102.200487 35.959256,99.8236259 35.0254892,98.4654197 C33.667283,96.597886 32.818404,96.0885587 30.7810946,96.0885587 C26.3669242,96.0885587 26.0273727,98.5503075 24.0749512,102.200487 C23.2260722,103.813357 22.8865207,106.275106 21.1887628,108.227527 C20.1701081,109.33107 17.114144,113.999904 14.9070588,114.763895 L9.04192907,144.741794 L12.44507,149.502661 C14.2561717,147.67864 15.2183144,146.653446 15.3314983,146.427079 C16.1803772,144.644433 18.1327987,142.946675 19.2363413,141.164029 C19.8305566,140.145375 20.5096597,139.211608 20.8492113,138.108065 C21.1887628,137.174298 21.3585386,135.816092 21.867866,135.052101 C22.4620812,134.118334 23.395848,133.778783 24.3296148,133.609007 C25.8575969,133.354343 27.1309153,135.731204 28.9984489,136.664971 C29.8473278,137.004523 33.5823951,138.362729 34.6859377,138.617393 C36.5534713,139.041832 38.5907807,139.466271 40.4583143,139.805823 C41.476969,139.975599 42.4107358,140.145375 43.5142784,140.230263 C44.4480452,140.31515 47.9284488,140.400038 48.1831125,140.654702 C46.4004667,141.588469 45.381812,144.135106 44.7027089,145.917751 C44.0236058,147.785285 43.5142784,149.907482 42.6653995,151.690128 C41.7316327,153.727437 39.7792112,154.576316 40.0338749,156.953177 C40.1187627,157.886944 40.2885385,158.905599 40.1187627,159.924253 C39.948987,161.027796 39.5245475,161.876675 39.1849959,162.89533 C38.9869802,163.52898 38.4091196,169.405746 39.2376816,170.272313 C40.0662436,171.138881 38.5787993,176.956966 38.261806,177.681522 L41.4476595,176.6635 C41.8720989,175.644845 42.4107358,164.338424 42.4956237,163.913984 C43.2596147,161.791787 44.1933816,160.009141 45.6364757,158.396271 C47.0795699,156.783401 46.994682,154.746092 47.8435609,152.793671 C48.7773277,150.756361 49.9657582,149.143491 51.1541887,147.19107 C53.276386,143.710666 54.6345923,139.381384 59.1336505,138.447617 C59.6429779,138.362729 62.3593904,140.31515 63.5478209,141.503581 C64.9060272,142.861787 66.4340093,144.389769 67.3677761,146.257303 C69.1504218,149.822594 70.593516,155.000756 71.1877312,157.802056 C71.5272828,159.414926 71.7819464,159.499814 72.885489,160.85802 C73.3948164,161.452235 74.4134711,163.319769 74.7530227,163.998872 C75.0925742,164.762863 75.6019016,166.460621 76.026341,167.394388 C76.2810047,167.903715 76.9601079,169.516585 77.3845473,170.959679 L81.0347267,170.874792 C79.4218567,167.224612 78.3183141,163.065105 77.7240989,158.990487 Z" id="Shape" fill="#FFFFFF" fill-rule="nonzero" transform="translate(63.122069, 136.745176) rotate(-15.000000) translate(-63.122069, -136.745176) "></path>
                <path d="M16,200.62726 C293.885183,54.7938576 228.303059,11.6422157 324.892197,11.6422157 C421.481335,11.6422157 524.858216,129.198264 623.052265,223.21071 C721.246314,317.223157 730.058504,366.674206 799.010486,413.654443 L16,413.654443 C17.1277473,272.601131 17.1277473,201.59207 16,200.62726 Z" id="Path-2-Copy-2" fill="#ED6A12"></path>
                <path d="M16,200.62726 C293.885183,54.7938576 228.303059,11.6422157 324.892197,11.6422157 C421.481335,11.6422157 184.068457,319.774945 282.262506,413.787392 L16,413.787392 C17.1277473,272.645447 17.1277473,201.59207 16,200.62726 Z" id="Path-2-Copy" fill-opacity="0.49000001" fill="#F28A05" style="mix-blend-mode: overlay;"></path>
            </g>
        </g>
    </g>
</svg>