<?xml version="1.0" encoding="UTF-8"?>
<svg width="269px" height="69px" viewBox="0 0 269 69" version="1.1" xmlns="http://www.w3.org/2000/svg" xmlns:xlink="http://www.w3.org/1999/xlink">
    <!-- Generator: Sketch 47.1 (45422) - http://www.bohemiancoding.com/sketch -->
    <title>Group 2</title>
    <desc>Created with Sketch.</desc>
    <defs>
        <path d="M50.5763559,9.99647191 C50.5763559,8.77385393 50.8180235,5.51573596 48.9629059,3.85644101 C47.1454647,2.23048315 43.2434382,2.19016854 41.9400118,2.19016854 C40.5147647,2.19016854 36.6287059,2.39154775 34.63275,3.98455618 C32.9396412,5.33587079 32.9954382,8.00128652 32.9954382,9.11245787 C32.9954382,10.3976798 33.4238735,14.1021657 35.48675,16.239809 C37.3093941,18.1281994 40.7045824,18.5468511 41.9400118,18.5468511 C43.1862059,18.5468511 46.4183088,18.3008933 48.1799529,16.5985702 C50.1416412,14.7026208 50.5763559,11.2723904 50.5763559,9.99647191 Z M22.9835441,9.11245787 C22.9835441,8.00128652 23.0393412,5.33587079 21.3462324,3.98455618 C19.3502765,2.39154775 15.4636794,2.19016854 14.0387912,2.19016854 C12.7351853,2.19016854 8.83351765,2.23048315 7.01607647,3.85644101 C5.16095882,5.51573596 5.40244706,8.77385393 5.40244706,9.99647191 C5.40244706,11.2723904 5.83734118,14.7026208 7.79902941,16.5985702 C9.56067353,18.3008933 12.7927765,18.5468511 14.0387912,18.5468511 C15.2744,18.5468511 18.6695882,18.1281994 20.4922324,16.239809 C22.5551088,14.1021657 22.9835441,10.3976798 22.9835441,9.11245787 Z M53.3518559,8.47110674 C52.3498412,9.33632022 51.9049,14.7586348 49.3355441,17.3100843 C46.7866412,19.8415702 44.5737765,19.8545562 41.9400118,19.8545562 C39.3064265,19.8545562 36.6195559,19.5275815 34.2531147,16.8356124 C32.6802118,15.0468455 31.4029794,11.2960365 30.7920824,8.71376966 C30.5862971,7.84332303 31.1571853,7.41381742 31.1571853,6.54841011 C31.1571853,5.54868539 30.4009647,5.19244382 29.4220941,4.99106461 C29.0482,4.91411798 28.5054794,4.83736517 27.9894912,4.83736517 C27.4733235,4.83736517 26.9573353,4.91411798 26.5568882,4.99106461 C25.5760441,5.17945787 24.8223353,5.54868539 24.8223353,6.54841011 C24.8223353,7.41381742 25.3926853,7.84332303 25.1869,8.71376966 C24.5758235,11.2960365 23.2987706,15.0468455 21.7258676,16.8356124 C19.3594265,19.5275815 16.6725559,19.8545562 14.0387912,19.8545562 C11.4052059,19.8545562 9.19234118,19.8415702 6.64343824,17.3100843 C4.07408235,14.7586348 3.62914118,9.33632022 2.62712647,8.47110674 C1.86355,7.8123118 0.434355882,7.57119944 0.434355882,7.57119944 C0.225341176,7.47971629 0.0882705882,7.26050562 0.0882705882,7.01667978 L0.0882705882,4.34021629 C0.0882705882,4.07138764 0.253329412,3.83550843 0.493561765,3.76379494 C1.14751765,3.56861798 2.53993235,3.13601124 4.27592059,2.49776124 C6.92421765,1.52362079 8.26173235,0.138969101 14.0387912,0.138969101 C21.0141412,0.138969101 23.5350559,3.31800843 24.0216206,3.31800843 C24.6766529,3.31800843 24.5822824,2.89955056 25.4628353,2.75418539 C25.8898353,2.68344101 26.4591088,2.60029213 27.9894912,2.60029213 C29.5198735,2.60029213 30.0982971,2.66405899 30.5161471,2.75418539 C31.3900618,2.94141573 31.3023294,3.31800843 31.9573618,3.31800843 C32.4439265,3.31800843 34.9648412,0.138969101 41.9400118,0.138969101 C47.71725,0.138969101 49.0547647,1.52362079 51.7030618,2.49776124 C53.43905,3.13601124 54.8314647,3.56861798 55.4854206,3.76379494 C55.7256529,3.83550843 55.8907118,4.07138764 55.8907118,4.34021629 L55.8907118,7.01667978 C55.8907118,7.26050562 55.7536412,7.47971629 55.5446265,7.57119944 C55.5446265,7.57119944 54.1154324,7.8123118 53.3518559,8.47110674 Z" id="path-1"></path>
        <path d="M0.0897058795,36.832675 C0.0930151264,36.9819642 0.102376086,37.1300615 0.118052941,37.2760871 C0.366717647,35.1175112 1.67875588,34.1879494 2.46350294,34.3286629 C0.842697059,34.8271685 -1.70477059,40.3128624 3.21147059,50.1662949 C3.30404706,50.1145449 3.40039118,50.0695787 3.50355294,50.0385674 C3.95764412,49.9030871 4.78204118,49.6472444 5.82872941,49.28325 C5.89690588,45.670441 7.28985882,43.1091067 7.15386471,40.1696292 C6.92134706,35.1411573 7.99369118,29.6422837 17.1627088,30.0483371 C26.3315471,30.4541966 26.6320618,31.5915337 32.0433,31.5915337 C37.4543588,31.5915337 42.6402559,29.4796685 45.2706118,29.4796685 C49.3197559,29.4796685 48.6148471,33.1327921 48.6148471,35.885427 C48.6148471,39.5104466 50.1665794,44.0706489 51.0593324,49.2026208 C52.2138471,49.6090618 53.1274118,49.8937837 53.6139765,50.0385674 C53.7031441,50.0653146 53.7878265,50.1009775 53.8691,50.1432303 C55.3182088,46.5870169 56.2597618,42.7491826 56.2597618,38.7340028 C56.2597618,34.5038764 53.6236647,31.1284972 52.5886382,30.6472416 C53.7723971,30.9214972 55.3036765,31.9770421 56.0268853,33.5099663 C55.7452088,29.9467753 53.5752235,28.3836152 52.7483147,28.221 C54.4015941,26.9214354 54.4582882,25.724014 54.4582882,24.6682753 C53.8009235,25.8656966 53.2556912,26.1298736 52.5983265,26.1907331 C53.6880735,23.6732022 53.4905412,19.6838006 51.3207353,18.2320871 C51.1232029,23.8862107 50.4188324,11.3694944 43.5421588,9.42082584 C44.7259176,10.3953539 46.0505147,12.3750337 45.8718206,14.0494466 C44.5283853,11.4914073 40.1600676,6.25322191 30.3900206,4.46658708 C31.80845,4.84221067 31.9681265,6.14177528 30.9912294,6.25322191 C29.7789441,6.39180337 26.2942294,3.67502528 27.1955941,0 C25.5990088,1.60405618 18.9098206,0.91386236 15.5844235,7.30934831 C15.5582294,6.59783427 15.9039559,5.38044944 16.3546382,4.73076404 C12.2870147,9.66407022 1.85942353,12.8316742 5.13781471,26.5562781 C3.49386471,23.9474579 3.29669118,20.3538371 3.82254706,18.354 C2.59178235,19.6533708 -0.273244118,24.5260112 2.58263235,29.8045112 C2.05641765,29.216073 1.83125588,28.9115815 0.478132353,28.4239298 C2.19725588,29.2767388 2.47947059,30.9214972 2.50763824,32.3224298 C1.11448101,32.6750847 0.13115825,34.6863538 0.0897058824,36.5848484 L0.0897058824,36.8326751 L0.0897058795,36.832675 Z" id="path-3"></path>
        <path d="M0.139941176,3.28945214 C0.153059474,4.18925092 0.52721063,5.07480845 1.23417353,5.67214888 C2.47642059,6.72265449 4.27161471,6.48561236 5.24366765,5.14282584 C6.2159,3.80042697 5.99647941,1.8600927 4.75369412,0.810168539 C3.96069412,0.139356742 2.94360882,-0.00387640449 2.05767353,0.327168539 L2.86807647,1.34685674 C1.92688235,1.69166292 1.32172647,2.67239326 1.26216176,3.56551685 L0.151244118,2.96079775 C0.144824306,3.03758868 0.141062518,3.11451891 0.139941176,3.19141781 L0.139941176,3.28945214 L0.139941176,3.28945214 Z" id="path-5"></path>
        <path d="M4.63528235,3.105 L5.57880882,2.22932022 C5.88524412,3.18621067 5.75265882,4.28536517 5.13189412,5.14224438 C4.15984118,6.4850309 2.36464706,6.72207303 1.1224,5.67156742 C-0.120385294,4.6210618 -0.339626471,2.68130899 0.632426471,1.33891011 C1.25265294,0.482030899 2.2082,0.0777219101 3.14167941,0.168623596 L2.58209412,1.36933989 C3.40846471,1.4336882 4.31610882,2.08763764 4.63528235,3.105 Z" id="path-7"></path>
    </defs>
    <g id="Page-1" stroke="none" stroke-width="1" fill="none" fill-rule="evenodd">
        <g id="Desktop-HD-Copy-2" transform="translate(-45.000000, -33.000000)">
            <g id="Header" transform="translate(-16.000000, 33.000000)">
                <g id="Group" transform="translate(59.000000, 0.000000)">
                    <g id="Group-2">
                        <g id="black-logo">
                            <g transform="translate(2.332353, 0.000000)">
                                <g id="Group-6" transform="translate(0.000000, 49.036517)">
                                    <mask id="mask-2" fill="white">
                                        <use xlink:href="#path-1"></use>
                                    </mask>
                                    <use id="Clip-5" fill="#FFFFFF" xlink:href="#path-1"></use>
                                    <polygon id="Fill-4" fill="#FFFFFF" mask="url(#mask-2)" points="0.0681764706 19.866573 55.8939412 19.866573 55.8939412 0.120168539 0.0681764706 0.120168539"></polygon>
                                </g>
                                <g id="Group-10">
                                    <mask id="mask-4" fill="white">
                                        <use xlink:href="#path-3"></use>
                                    </mask>
                                    <g id="Clip-8"></g>
                                    <polygon id="Fill-7" fill="#FFFFFF" mask="url(#mask-4)" points="0.0897058824 50.1800562 56.2599412 50.1800562 56.2599412 -0.0116292135 0.0897058824 -0.0116292135"></polygon>
                                    <polygon id="Fill-9" fill="#FFFFFF" mask="url(#mask-4)" points="0.0897058824 50.1800562 56.2599412 50.1800562 56.2599412 -0.0116292135 0.0897058824 -0.0116292135"></polygon>
                                </g>
                                <g id="Group-13" transform="translate(34.805882, 55.820225)">
                                    <mask id="mask-6" fill="white">
                                        <use xlink:href="#path-5"></use>
                                    </mask>
                                    <g id="Clip-12"></g>
                                    <polygon id="Fill-11" fill="#FFFFFF" mask="url(#mask-6)" points="0.139941176 6.33792135 5.86676471 6.33792135 5.86676471 0.151179775 0.139941176 0.151179775"></polygon>
                                </g>
                                <g id="Group-16" transform="translate(15.070588, 55.820225)">
                                    <mask id="mask-8" fill="white">
                                        <use xlink:href="#path-7"></use>
                                    </mask>
                                    <g id="Clip-15"></g>
                                    <polygon id="Fill-14" fill="#FFFFFF" mask="url(#mask-8)" points="0.0251176471 6.33792135 5.75194118 6.33792135 5.75194118 0.151179775 0.0251176471 0.151179775"></polygon>
                                </g>
                            </g>
                        </g>
                        <path d="M93.005,54 L99.22,54 L90.805,32.66 L99.22,15.5 L93.17,15.5 L85.36,32.165 L85.25,32.165 L85.25,15.5 L79.2,15.5 L79.2,54 L85.25,54 L85.25,42.175 L87.12,38.655 L93.005,54 Z M107.425885,24.355 L107.425885,45.145 C107.425885,47.895 108.635885,48.94 110.560885,48.94 C112.485885,48.94 113.695885,47.895 113.695885,45.145 L113.695885,24.355 C113.695885,21.605 112.485885,20.56 110.560885,20.56 C108.635885,20.56 107.425885,21.605 107.425885,24.355 Z M101.375885,44.76 L101.375885,24.74 C101.375885,18.58 104.620885,15.06 110.560885,15.06 C116.500885,15.06 119.745885,18.58 119.745885,24.74 L119.745885,44.76 C119.745885,50.92 116.500885,54.44 110.560885,54.44 C104.620885,54.44 101.375885,50.92 101.375885,44.76 Z M123.93677,54 L123.93677,15.5 L133.50677,15.5 C139.55677,15.5 142.52677,18.855 142.52677,25.015 L142.52677,44.485 C142.52677,50.645 139.55677,54 133.50677,54 L123.93677,54 Z M133.39677,21 L129.98677,21 L129.98677,48.5 L133.39677,48.5 C135.32177,48.5 136.47677,47.51 136.47677,44.76 L136.47677,24.74 C136.47677,21.99 135.32177,21 133.39677,21 Z M152.712656,21 L163.162656,21 L163.162656,15.5 L146.662656,15.5 L146.662656,54 L163.162656,54 L163.162656,48.5 L152.712656,48.5 L152.712656,37.225 L161.017656,37.225 L161.017656,31.725 L152.712656,31.725 L152.712656,21 Z M166.418541,24.74 C166.418541,29.14 168.013541,32.33 173.073541,36.785 C177.033541,40.25 178.243541,42.34 178.243541,45.145 C178.243541,47.895 177.033541,48.885 175.108541,48.885 C173.183541,48.885 171.973541,47.895 171.973541,45.145 L171.973541,42.395 L166.253541,42.395 L166.253541,44.76 C166.253541,50.92 169.333541,54.44 175.273541,54.44 C181.213541,54.44 184.293541,50.92 184.293541,44.76 C184.293541,40.36 182.698541,37.17 177.638541,32.715 C173.678541,29.25 172.468541,27.16 172.468541,24.355 C172.468541,21.605 173.568541,20.56 175.493541,20.56 C177.418541,20.56 178.518541,21.605 178.518541,24.355 L178.518541,25.95 L184.238541,25.95 L184.238541,24.74 C184.238541,18.58 181.213541,15.06 175.328541,15.06 C169.443541,15.06 166.418541,18.58 166.418541,24.74 Z M200.969426,54 L207.184426,54 L207.184426,15.5 L201.794426,15.5 L201.794426,38.545 L201.684426,38.545 L195.579426,15.5 L187.989426,15.5 L187.989426,54 L193.434426,54 L193.434426,26.115 L193.544426,26.115 L200.969426,54 Z M211.540311,15.5 L211.540311,44.815 C211.540311,50.975 214.620311,54.495 220.560311,54.495 C226.500311,54.495 229.580311,50.975 229.580311,44.815 L229.580311,15.5 L223.860311,15.5 L223.860311,45.2 C223.860311,47.95 222.650311,48.94 220.725311,48.94 C218.800311,48.94 217.590311,47.95 217.590311,45.2 L217.590311,15.5 L211.540311,15.5 Z M232.231197,21 L238.556197,21 L238.556197,54 L244.606197,54 L244.606197,21 L250.931197,21 L250.931197,15.5 L232.231197,15.5 L232.231197,21 Z M252.097082,21 L258.422082,21 L258.422082,54 L264.472082,54 L264.472082,21 L270.797082,21 L270.797082,15.5 L252.097082,15.5 L252.097082,21 Z" id="KODESNUTT" fill="#FFFFFF"></path>
                    </g>
                </g>
            </g>
        </g>
    </g>
</svg>