<?xml version="1.0" encoding="UTF-8"?>
<svg width="2927px" height="5379px" viewBox="0 0 2927 5379" version="1.1" xmlns="http://www.w3.org/2000/svg" xmlns:xlink="http://www.w3.org/1999/xlink">
    <!-- Generator: Sketch 47.1 (45422) - http://www.bohemiancoding.com/sketch -->
    <title>Background</title>
    <desc>Created with Sketch.</desc>
    <defs></defs>
    <g id="Page-1" stroke="none" stroke-width="1" fill="none" fill-rule="evenodd">
        <g id="Background" transform="translate(-37.000000, -37.000000)">
            <g id="Background-decoration" transform="translate(1654.000000, 794.000000) scale(-1, 1) translate(-1654.000000, -794.000000) translate(424.000000, 0.000000)">
                <rect id="Rectangle-2" fill-opacity="0.2" fill="#EAF3FF" transform="translate(867.722152, 847.722152) rotate(-329.000000) translate(-867.722152, -847.722152) " x="328.646759" y="308.646759" width="1078.15079" height="1078.15079" rx="100"></rect>
                <rect id="Rectangle-2" fill-opacity="0.2" fill="#DEDEDE" transform="translate(1631.399497, 770.646724) rotate(-330.000000) translate(-1631.399497, -770.646724) " x="966.801452" y="264.743064" width="1329.19609" height="1011.80732" rx="100"></rect>
                <rect id="Rectangle-2" fill-opacity="0.3" fill="#E7F1FF" transform="translate(561.500000, 948.588808) rotate(-331.000000) translate(-561.500000, -948.588808) " x="156.012987" y="521.920155" width="810.974025" height="853.337306" rx="100"></rect>
            </g>
            <g id="Background-decoration" transform="translate(1230.000000, 4660.000000) scale(-1, 1) translate(-1230.000000, -4660.000000) translate(0.000000, 3866.000000)">
                <rect id="Rectangle-2" fill-opacity="0.4" fill="#EAF3FF" transform="translate(867.722152, 847.722152) rotate(-329.000000) translate(-867.722152, -847.722152) " x="328.646759" y="308.646759" width="1078.15079" height="1078.15079" rx="100"></rect>
                <rect id="Rectangle-2" fill-opacity="0.2" fill="#DEDEDE" transform="translate(1631.399497, 770.646724) rotate(-330.000000) translate(-1631.399497, -770.646724) " x="966.801452" y="264.743064" width="1329.19609" height="1011.80732" rx="100"></rect>
                <rect id="Rectangle-2" fill-opacity="0.3" fill="#E7F1FF" transform="translate(561.500000, 948.588808) rotate(-331.000000) translate(-561.500000, -948.588808) " x="156.012987" y="521.920155" width="810.974025" height="853.337306" rx="100"></rect>
            </g>
            <g id="Background-decoration" transform="translate(1898.108119, 2821.459507) scale(-1, 1) rotate(-166.000000) translate(-1898.108119, -2821.459507) translate(743.108119, 1637.959507)">
                <rect id="Rectangle-2" fill-opacity="0.2" fill="#DDE2E9" transform="translate(1301.222152, 739.979983) rotate(-329.000000) translate(-1301.222152, -739.979983) " x="762.146759" y="200.90459" width="1078.15079" height="1078.15079" rx="100"></rect>
                <rect id="Rectangle-2" fill-opacity="0.2" fill="#EAF3FF" transform="translate(1009.677494, 1773.731409) rotate(-354.000000) translate(-1009.677494, -1773.731409) " x="470.602102" y="1234.65602" width="1078.15079" height="1078.15079" rx="100"></rect>
                <rect id="Rectangle-2" fill-opacity="0.2" fill="#DEDEDE" transform="translate(1480.852117, 1343.588808) rotate(-330.000000) translate(-1480.852117, -1343.588808) " x="816.254071" y="837.685148" width="1329.19609" height="1011.80732" rx="100"></rect>
                <rect id="Rectangle-2" fill-opacity="0.3" fill="#E7F1FF" transform="translate(561.500000, 1343.588808) rotate(-331.000000) translate(-561.500000, -1343.588808) " x="156.012987" y="916.920155" width="810.974025" height="853.337306" rx="100"></rect>
            </g>
        </g>
    </g>
</svg>